<svg width="40" height="40" viewBox="0 0 40 40" fill="none" xmlns="http://www.w3.org/2000/svg">
<path d="M20 0C8.95312 0 0 8.95312 0 20C0 31.0469 8.95312 40 20 40C31.0469 40 40 31.0469 40 20C40 8.95312 31.0469 0 20 0ZM20 36.25C11.0391 36.25 3.75 28.9602 3.75 20C3.75 11.0398 11.0391 3.75 20 3.75C28.9609 3.75 36.25 11.0398 36.25 20C36.25 28.9602 28.9609 36.25 20 36.25ZM20 23.75C21.0352 23.75 21.875 22.9102 21.875 21.875V11.875C21.875 10.8438 21.0391 10 20 10C18.9609 10 18.125 10.8438 18.125 11.875V21.875C18.125 22.9141 18.9688 23.75 20 23.75ZM20 26.3359C18.6437 26.3359 17.5438 27.4359 17.5438 28.7922C17.5469 30.1484 18.6406 31.25 20 31.25C21.3594 31.25 22.4562 30.15 22.4562 28.7938C22.4531 27.4375 21.3594 26.3359 20 26.3359Z" fill="#FF5656"/>
</svg>
