<svg width="174" height="174" viewBox="0 0 174 174" fill="none" xmlns="http://www.w3.org/2000/svg">
<circle cx="87" cy="87" r="54" fill="#9C7AF8"/>
<path d="M85.0143 112.722C72.545 111.909 63.4822 103.178 63.0186 92.1841C62.994 91.6006 63.0887 90.9923 63.4661 90.5466C64.4061 89.4362 65.898 89.4619 66.8125 90.6238C67.134 91.0323 67.2229 91.5655 67.2671 92.0834C68.0995 101.838 75.9304 108.965 86.5756 108.965C102.501 107.712 106.092 97.2798 106.092 91.2975C106.092 89.7649 108.778 88.7268 110.098 90.6068C110.395 91.0302 110.468 91.5639 110.448 92.081C110.048 102.467 101.696 111.5 88.293 112.722V118.008C95.9434 118.008 101.564 119.26 101.564 123.016H71.8994C71.431 118.843 79.5498 118.008 85.0143 118.008V112.722Z" fill="white"/>
<path d="M71.431 64.1186V92.5498C73.4106 107.342 97.3721 109.428 101.884 93.7712C102.115 92.9711 102.189 92.1301 102.189 91.2975V62.9179C100.508 49.9918 77.1635 44.785 71.764 61.7533C71.5223 62.5131 71.431 63.3213 71.431 64.1186Z" fill="white"/>
<path d="M85.0143 112.722C72.545 111.909 63.4822 103.178 63.0186 92.1841C62.994 91.6006 63.0887 90.9923 63.4661 90.5466C64.4061 89.4362 65.898 89.4619 66.8125 90.6238C67.134 91.0323 67.2229 91.5655 67.2671 92.0834C68.0995 101.838 75.9304 108.965 86.5756 108.965C102.501 107.712 106.092 97.2798 106.092 91.2975C106.092 89.7649 108.778 88.7268 110.098 90.6068C110.395 91.0302 110.468 91.5639 110.448 92.081C110.048 102.467 101.696 111.5 88.293 112.722V118.008C95.9434 118.008 101.564 119.26 101.564 123.016H71.8994C71.431 118.843 79.5498 118.008 85.0143 118.008V112.722Z" stroke="black"/>
<path d="M71.431 64.1186V92.5498C73.4106 107.342 97.3721 109.428 101.884 93.7712C102.115 92.9711 102.189 92.1301 102.189 91.2975V62.9179C100.508 49.9918 77.1635 44.785 71.764 61.7533C71.5223 62.5131 71.431 63.3213 71.431 64.1186Z" stroke="black"/>
<circle cx="87" cy="87" r="62.6272" stroke="#9C7AF8" stroke-opacity="0.6" stroke-width="0.745562"/>
<circle cx="87" cy="87" r="62.6272" stroke="#9C7AF8" stroke-opacity="0.6" stroke-width="0.745562"/>
<circle cx="87" cy="87" r="62.6272" stroke="#9C7AF8" stroke-opacity="0.6" stroke-width="0.745562"/>
<circle cx="86.5" cy="87.5" r="75.0533" stroke="#9C7AF8" stroke-width="0.893491"/>
<circle cx="87" cy="87" r="86.4852" stroke="#9C7AF8" stroke-width="1.02959"/>
</svg>
