<svg width="40" height="40" viewBox="0 0 40 40" fill="none" xmlns="http://www.w3.org/2000/svg">
<path fill-rule="evenodd" clip-rule="evenodd" d="M19.9998 1.66669C9.87462 1.66669 1.6665 9.87479 1.6665 20C1.6665 30.1252 9.87462 38.3334 19.9998 38.3334C30.1251 38.3334 38.3331 30.1252 38.3331 20C38.3331 9.87479 30.1251 1.66669 19.9998 1.66669ZM19.9998 5.00002C28.2841 5.00002 34.9999 11.7158 34.9999 20C34.9999 28.2842 28.2841 35 19.9998 35C11.7156 35 4.99984 28.2842 4.99984 20C4.99984 11.7158 11.7156 5.00002 19.9998 5.00002ZM29.5117 13.8215C28.8609 13.1706 27.8055 13.1706 27.1547 13.8215L16.6665 24.3084L12.845 20.4882L12.688 20.3496C12.0342 19.8412 11.0888 19.8874 10.488 20.4882C9.83712 21.139 9.83712 22.1944 10.488 22.8452L15.488 27.8452L15.645 27.9838C16.2988 28.4922 17.2442 28.446 17.845 27.8452L29.5117 16.1785L29.6503 16.0215C30.1587 15.3677 30.1125 14.4223 29.5117 13.8215Z" fill="#1F2C33"/>
<mask id="mask0_5_495" style="mask-type:alpha" maskUnits="userSpaceOnUse" x="1" y="1" width="38" height="38">
<path fill-rule="evenodd" clip-rule="evenodd" d="M19.9998 1.66669C9.87462 1.66669 1.6665 9.87479 1.6665 20C1.6665 30.1252 9.87462 38.3334 19.9998 38.3334C30.1251 38.3334 38.3331 30.1252 38.3331 20C38.3331 9.87479 30.1251 1.66669 19.9998 1.66669ZM19.9998 5.00002C28.2841 5.00002 34.9999 11.7158 34.9999 20C34.9999 28.2842 28.2841 35 19.9998 35C11.7156 35 4.99984 28.2842 4.99984 20C4.99984 11.7158 11.7156 5.00002 19.9998 5.00002ZM29.5117 13.8215C28.8609 13.1706 27.8055 13.1706 27.1547 13.8215L16.6665 24.3084L12.845 20.4882L12.688 20.3496C12.0342 19.8412 11.0888 19.8874 10.488 20.4882C9.83712 21.139 9.83712 22.1944 10.488 22.8452L15.488 27.8452L15.645 27.9838C16.2988 28.4922 17.2442 28.446 17.845 27.8452L29.5117 16.1785L29.6503 16.0215C30.1587 15.3677 30.1125 14.4223 29.5117 13.8215Z" fill="white"/>
</mask>
<g mask="url(#mask0_5_495)">
<path d="M40 0H0V40H40V0Z" fill="#00BC6C"/>
</g>
</svg>
